<svg id="Capa_1" enable-background="new 0 0 512 512" height="512" viewBox="0 0 512 512" width="512" fill="white" xmlns="http://www.w3.org/2000/svg"><path d="m216.674 301.186-.386-238.876c-.055-34.358-28.049-62.31-62.402-62.31-34.401 0-62.395 27.992-62.402 62.398l-.048 237.186c-33.271 21.391-53.342 58.251-52.93 98.257.31 30.154 12.285 58.61 33.718 80.127 21.435 21.519 49.843 33.601 79.991 34.021.553.008 1.104.012 1.655.012 30.513 0 59.212-11.759 80.97-33.217 22.161-21.854 34.365-51.031 34.365-82.155.001-36.858-20.366-73.443-52.531-95.443zm-2.898 156.237c-16.39 16.164-38.092 24.899-61.143 24.568-45.916-.639-83.655-38.527-84.128-84.459-.328-31.886 16.926-61.074 45.029-76.171 4.864-2.613 7.9-7.688 7.901-13.211l.05-245.746c.003-17.868 14.539-32.404 32.401-32.404 17.837 0 32.373 14.516 32.402 32.358l.399 247.113c.009 5.331 2.846 10.256 7.453 12.938 26.956 15.694 45.066 45.521 45.066 74.22 0 23.032-9.031 44.622-25.43 60.794z"/><path d="m168.853 345.675v-282.027c0-8.284-6.716-15-15-15s-15 6.716-15 15v282.026c-22.744 6.529-39.434 27.521-39.434 52.339 0 30.019 24.419 54.441 54.434 54.441s54.434-24.422 54.434-54.441c0-24.817-16.69-45.809-39.434-52.338zm-15 76.78c-13.473 0-24.434-10.964-24.434-24.441s10.961-24.441 24.434-24.441 24.434 10.964 24.434 24.441-10.961 24.441-24.434 24.441z"/><path d="m354.751 173.208c30.015 0 54.434-24.422 54.434-54.441s-24.419-54.441-54.434-54.441-54.434 24.422-54.434 54.441 24.42 54.441 54.434 54.441zm0-78.882c13.473 0 24.434 10.964 24.434 24.441s-10.961 24.441-24.434 24.441-24.434-10.964-24.434-24.441 10.962-24.441 24.434-24.441z"/><path d="m339.751 203.208v19.326c0 8.284 6.716 15 15 15s15-6.716 15-15v-19.326c0-8.284-6.716-15-15-15s-15 6.716-15 15z"/><path d="m354.751 49.326c8.284 0 15-6.716 15-15v-19.326c0-8.284-6.716-15-15-15s-15 6.716-15 15v19.326c0 8.284 6.716 15 15 15z"/><path d="m251.003 133.767h19.323c8.284 0 15-6.716 15-15s-6.716-15-15-15h-19.323c-8.284 0-15 6.716-15 15s6.716 15 15 15z"/><path d="m458.5 103.767h-19.323c-8.284 0-15 6.716-15 15s6.716 15 15 15h19.323c8.284 0 15-6.716 15-15s-6.716-15-15-15z"/><path d="m305.659 167.869c-5.858-5.857-15.355-5.856-21.213.002l-13.663 13.666c-5.857 5.858-5.856 15.355.002 21.213 2.929 2.929 6.767 4.393 10.605 4.393s7.679-1.465 10.607-4.395l13.663-13.666c5.858-5.859 5.857-15.356-.001-21.213z"/><path d="m414.449 74.059c3.839 0 7.679-1.465 10.607-4.395l13.663-13.666c5.857-5.858 5.856-15.356-.002-21.213-5.857-5.856-15.355-5.857-21.213.002l-13.663 13.666c-5.857 5.858-5.856 15.356.002 21.213 2.93 2.929 6.768 4.393 10.606 4.393z"/><path d="m284.445 69.664c2.93 2.93 6.768 4.395 10.608 4.395 3.838 0 7.677-1.464 10.605-4.392 5.858-5.857 5.859-15.355.002-21.213l-13.663-13.666c-5.858-5.859-15.354-5.859-21.213-.002-5.858 5.857-5.859 15.355-.002 21.213z"/><path d="m425.057 167.871c-5.857-5.858-15.355-5.859-21.213-.002s-5.859 15.354-.002 21.213l13.663 13.666c2.929 2.93 6.769 4.395 10.607 4.395s7.677-1.464 10.605-4.393c5.858-5.857 5.859-15.354.002-21.213z"/><path d="m366.413 279.18c-.201-.248-.41-.49-.627-.725-.004-.004-.008-.009-.012-.013-.04-.043-.08-.086-.12-.128-.008-.009-.017-.018-.025-.027-.092-.097-.185-.193-.28-.287-.008-.008-.017-.016-.025-.024-.037-.037-.075-.074-.113-.111-.018-.017-.036-.034-.054-.052-.028-.027-.056-.054-.084-.081-.021-.019-.041-.039-.062-.058-.029-.027-.058-.054-.087-.081-.017-.016-.034-.032-.052-.047-.035-.032-.07-.064-.105-.095-.012-.011-.024-.022-.037-.033-.046-.041-.093-.082-.14-.123-.002-.002-.004-.003-.006-.005-2.532-2.2-5.808-3.566-9.401-3.668-.006 0-.013 0-.019-.001-.058-.002-.116-.003-.175-.004-.012 0-.024 0-.035-.001-.068-.001-.136-.001-.205-.001s-.137 0-.205.001c-.012 0-.023 0-.035.001-.058.001-.117.002-.175.004-.006 0-.013 0-.019.001-3.593.102-6.869 1.467-9.401 3.668-.002.002-.004.003-.006.005-.047.041-.093.082-.14.123-.012.011-.024.022-.037.033-.035.031-.07.063-.105.095-.017.016-.034.032-.052.047-.029.027-.058.054-.087.081-.021.019-.041.039-.062.058-.028.027-.056.054-.084.081-.018.017-.036.034-.054.052-.038.037-.075.074-.113.111-.008.008-.017.016-.025.024-.095.094-.188.19-.28.287-.008.009-.017.018-.025.027-.04.042-.08.085-.12.128-.004.004-.008.009-.012.013-.216.235-.426.477-.627.725l-41.097 49.899c-5.267 6.395-4.352 15.848 2.042 21.115 2.794 2.301 6.17 3.422 9.528 3.422 4.327 0 8.621-1.863 11.587-5.464l14.602-17.729v166.577c0 8.284 6.716 15 15 15s15-6.716 15-15v-166.579l14.603 17.73c5.266 6.395 14.72 7.309 21.114 2.042s7.309-14.72 2.042-21.115z"/></svg>