<svg height="512pt" viewBox="0 0 512.00071 512" fill="white" width="512pt" xmlns="http://www.w3.org/2000/svg"><path d="m392.234375 172.660156v184.003906c11.929687 6.90625 19.960937 19.792969 19.960937 34.566407 0 22.050781-17.875 39.921875-39.921874 39.921875-22.046876 0-39.921876-17.871094-39.921876-39.921875 0-14.773438 8.03125-27.660157 19.960938-34.566407v-184.003906c0-11.023437 8.9375-19.960937 19.960938-19.960937 11.023437 0 19.960937 8.9375 19.960937 19.960937zm99.804687 18.964844c11.023438 0 19.960938-8.9375 19.960938-19.960938 0-11.023437-8.9375-19.960937-19.960938-19.960937h-29.941406v-30.941406h29.941406c11.023438 0 19.960938-8.933594 19.960938-19.960938 0-11.023437-8.9375-19.960937-19.960938-19.960937h-30.390624c-4.519532-45.324219-42.878907-80.839844-89.375-80.839844-16.554688 0-32.742188 4.546875-46.808594 13.148438-9.402344 5.753906-12.367188 18.039062-6.613282 27.445312 5.75 9.40625 18.035157 12.367188 27.441407 6.613281 7.792969-4.765625 16.777343-7.285156 25.980469-7.285156 27.515624 0 49.902343 22.386719 49.902343 49.902344v151.703125c0 11.023437 8.9375 19.960937 19.960938 19.960937h49.902343c11.023438 0 19.960938-8.9375 19.960938-19.960937 0-11.027344-8.9375-19.960938-19.960938-19.960938h-29.941406v-29.941406zm-50.054687 125.472656c-8.972656 6.402344-11.058594 18.867188-4.65625 27.839844 9.675781 13.5625 14.789063 29.570312 14.789063 46.292969 0 44.027343-35.816407 79.84375-79.84375 79.84375-44.023438 0-79.84375-35.816407-79.84375-79.84375 0-21.617188 8.507812-41.863281 23.953124-57.007813 7.875-7.71875 8-20.355468.28125-28.230468-7.714843-7.871094-20.355468-7.996094-28.226562-.277344-23.167969 22.714844-35.929688 53.085937-35.929688 85.519531 0 66.039063 53.726563 119.765625 119.765626 119.765625 66.039062 0 119.765624-53.726562 119.765624-119.765625 0-25.085937-7.679687-49.113281-22.210937-69.480469-6.402344-8.972656-18.867187-11.058594-27.84375-4.65625zm-175.796875-36.390625c10.671875-2.765625 17.082031-13.660156 14.316406-24.332031-2.316406-8.941406-5.199218-20.070312-7.621094-29.425781l29.523438-7.613281c10.675781-2.75 17.097656-13.636719 14.34375-24.3125-2.753906-10.675782-13.640625-17.097657-24.3125-14.34375l-40.875 10.542968-53.496094-31.46875 53.496094-31.464844 40.875 10.542969c1.671875.429688 3.347656.636719 5 .636719 8.882812 0 16.992188-5.976562 19.3125-14.980469 2.753906-10.675781-3.667969-21.5625-14.34375-24.3125l-29.523438-7.617187c2.421876-9.355469 5.304688-20.480469 7.621094-29.425782 2.765625-10.667968-3.644531-21.5625-14.316406-24.328124-10.667969-2.765626-21.5625 3.644531-24.328125 14.316406l-10.558594 40.769531-52.648437 30.964844v-60.925781l29.832031-29.773438c7.800781-7.785156 7.8125-20.425781.023437-28.226562-7.785156-7.804688-20.425781-7.816407-28.226562-.027344l-21.589844 21.550781c-6.859375-6.847656-15.023437-14.996094-21.582031-21.546875-7.800781-7.789062-20.4375-7.78125-28.226563.019531-7.792968 7.800781-7.78125 20.4375.019532 28.230469l29.832031 29.777344v60.921875l-52.652344-30.96875-10.554687-40.761719c-2.761719-10.671875-13.648438-17.085938-24.324219-14.320312-10.675781 2.761718-17.085937 13.652343-14.324219 24.324218l7.621094 29.433594-29.519531 7.613281c-10.675781 2.75-17.09375 13.636719-14.34375 24.3125 2.324219 9.003907 10.429687 14.980469 19.316406 14.980469 1.648437 0 3.324219-.207031 4.996094-.636719l40.875-10.542969 53.5 31.464844-53.5 31.46875-40.875-10.542968c-10.675781-2.753907-21.558594 3.667968-24.3125 14.34375-2.753907 10.675781 3.667969 21.5625 14.34375 24.3125l29.519531 7.613281-7.621094 29.433593c-2.761718 10.671876 3.648438 21.5625 14.324219 24.324219 1.675781.433594 3.359375.644531 5.015625.644531 8.878906 0 16.980469-5.96875 19.308594-14.964843l10.554687-40.761719 52.648438-30.96875v60.925781l-29.828125 29.773438c-7.800782 7.789062-7.8125 20.425781-.027344 28.226562 3.898438 3.90625 9.015625 5.859375 14.128906 5.859375 5.101563 0 10.207032-1.941406 14.101563-5.832031l21.585937-21.546875 21.585938 21.546875c3.898437 3.890625 9 5.832031 14.101562 5.832031 5.117188 0 10.230469-1.953125 14.128906-5.859375 7.789063-7.800781 7.777344-20.4375-.027343-28.226562l-29.828125-29.773438v-60.925781l52.648437 30.964844 10.558594 40.769531c2.328125 8.996094 10.429687 14.960937 19.308594 14.960937 1.65625-.003906 3.34375-.210937 5.019531-.644531zm0 0"/></svg>