<svg id="nervous" enable-background="new 0 0 300 300" fill="white" height="512" viewBox="0 0 300 300" width="512" xmlns="http://www.w3.org/2000/svg"><g><circle cx="238" cy="74" r="4"/><path d="m196.766 115.227c1.816.969 3.801 1.461 5.805 1.461 1.199 0 2.41-.176 3.594-.535 3.156-.957 5.75-3.082 7.305-5.988 1.551-2.906 1.883-6.246.926-9.398s-3.082-5.746-5.988-7.301c-2.906-1.559-6.25-1.891-9.398-.93-3.152.957-5.746 3.082-7.301 5.988s-1.887 6.246-.93 9.398c.956 3.156 3.081 5.75 5.987 7.305zm1.996-12.93c.547-1.02 1.457-1.77 2.566-2.105.414-.125.84-.188 1.262-.188.703 0 1.402.172 2.043.516 1.02.547 1.77 1.457 2.105 2.566s.219 2.281-.324 3.305c-.547 1.02-1.461 1.77-2.57 2.105-1.109.332-2.277.223-3.305-.324-1.02-.547-1.77-1.461-2.105-2.57s-.219-2.282.328-3.305z"/><path d="m195.352 69.273c.781.781 1.805 1.172 2.828 1.172s2.047-.391 2.828-1.172l3.068-3.068 3.068 3.068c.781.781 1.805 1.172 2.828 1.172s2.047-.391 2.828-1.172c1.562-1.562 1.562-4.094 0-5.656l-3.068-3.068 3.068-3.068c1.562-1.562 1.562-4.094 0-5.656s-4.094-1.562-5.656 0l-3.068 3.068-3.068-3.068c-1.562-1.562-4.094-1.562-5.656 0s-1.562 4.094 0 5.656l3.068 3.068-3.068 3.068c-1.563 1.563-1.563 4.094 0 5.656z"/><path d="m254 190c-2.954 0-5.505 1.619-6.891 4h-5.109c-14.076 0-25.729 10.455-27.681 24h-12.319v-24c0-4.41 3.59-8 8-8 8.824 0 16-7.176 16-16v-13.11c2.381-1.386 4-3.937 4-6.89 0-4.418-3.582-8-8-8s-8 3.582-8 8c0 2.954 1.619 5.505 4 6.89v13.11c0 4.41-3.59 8-8 8-8.824 0-16 7.176-16 16v24h-8.737c-1.656-4.646-6.055-8-11.263-8h-92c-2.207 0-4-1.793-4-4s1.793-4 4-4h41.047c9.98 0 18.984-5.125 24.082-13.711 5.09-8.586 5.277-18.941.5-27.695l-11.094-20.34c-2.438-4.47-7.325-6.739-12.097-6.12-.983-6.915-1.353-18.607 5.511-25.86 3.535-3.731 8.723-5.961 15.415-6.754 1.472 2.188 4.636 7.463 4.636 12.48 0 2.211 1.789 4 4 4s4-1.789 4-4c0-4.701-1.744-9.274-3.502-12.701 2.21.121 4.493.312 6.936.662 2.207.316 4.215-1.207 4.527-3.395s-1.207-4.215-3.395-4.527c-5.115-.729-9.785-.944-14.099-.757 3.072-5.768 8.715-13.354 16.563-11.403 2.133.527 4.312-.766 4.848-2.91.539-2.141-.766-4.312-2.91-4.848-16.332-4.102-25.296 13.988-27.924 20.416-4.94 1.212-9.119 3.265-12.55 6.12-2.319-2.214-4.894-5.362-4.846-7.805.008-.453.031-1.832 2.57-3.523 5.822-3.881 11.456-9.381 15.641-15.785l15.93-7.965c1.977-.988 2.777-3.391 1.789-5.367s-3.391-2.773-5.367-1.789l-6.87 3.435c1.589-5.423 1.963-11.128.538-16.825-.535-2.145-2.719-3.457-4.848-2.91-2.145.535-3.449 2.707-2.91 4.848.334 1.337.5 2.68.584 4.021-5.59-5.654-14.411-8.299-20.252-8.962-2.266-.289-4.172 1.324-4.422 3.516-.254 2.191 1.32 4.172 3.512 4.43.795.093 19.222 2.42 18.343 14.484-3.486 7.392-9.673 13.927-16.104 18.216-1.443.962-2.53 1.979-3.391 3.005l-18.776-3.129c-.478-2.703-1.477-5.367-2.996-7.982 3.256-5.049 3.381-11.717 3.381-12.57 0-2.203-1.785-3.988-3.988-3.996-.004 0-.008 0-.012 0-2.199 0-3.988 1.785-4 3.984-.005 1.006-.212 3.324-.875 5.504-.104-.106-.19-.215-.296-.321-5.312-5.312-9.091-10.298-11.829-14.732 5.412-6.845 8.657-16.745 8.81-17.214.676-2.102-.477-4.352-2.578-5.031-2.105-.68-4.355.477-5.035 2.574-.029.082-2.087 6.356-5.358 11.687-2.688-6.388-2.837-10.396-2.839-10.455 0-2.211-1.789-4-4-4s-4 1.789-4 4c0 .518.167 9.494 7.924 22.223-6.644.311-14.461.039-18.135-1.801-1.977-.984-4.375-.188-5.367 1.789-.988 1.977-.188 4.379 1.789 5.367 4.387 2.195 11.145 2.777 17.09 2.777 4.036 0 7.661-.268 9.944-.484 2.252 2.882 4.841 5.871 7.927 8.957 4.93 4.93 7.191 9.895 6.727 14.754-.676 7.017-6.675 12.397-9.082 14.3-4.702-3.143-10.754-4.885-18.107-5.212l-5.01-12.189c-.84-2.047-3.184-3.008-5.219-2.18-2.043.84-3.02 3.176-2.18 5.219l3.862 9.395c-2.829.239-5.752.583-8.877 1.152-2.176.395-3.617 2.477-3.219 4.648.391 2.176 2.48 3.641 4.648 3.219 14.742-2.676 25.648-1.281 31.547 4.031 3.773 3.407 4.779 7.692 5.037 10.262-3.027 1.528-5.109 3.361-7.005 5.05-.845.753-1.701 1.51-2.66 2.247-.089-.319-.149-.633-.273-.958-1.453-3.801-4.848-6.613-10.094-8.359-2.113-.707-4.359.434-5.059 2.527-.699 2.098.434 4.363 2.527 5.059 2.793.934 4.566 2.172 5.133 3.582.285.707.244 1.437.126 2.034-2.873.909-6.563 1.638-11.501 2.088-3.171-.332-7.062-7.536-8.672-12.689-.66-2.109-2.914-3.293-5.008-2.625-2.109.656-3.285 2.895-2.633 5.004.487 1.566 2.16 6.457 5.094 10.798-.433.003-.828.015-1.274.015-2.211 0-4 1.789-4 4s1.789 4 4 4c7.046 0 12.695-.377 17.316-1.017-2.041 3.063-5.015 6.835-8.238 10.287-1.508 1.613-1.422 4.145.191 5.652.77.723 1.751 1.078 2.731 1.078 1.066 0 2.133-.426 2.922-1.266 2.625-2.809 10.319-11.426 12.487-18.021 6.138-2.082 9.286-4.859 12.205-7.463 2.641-2.352 4.727-4.211 9.355-5.371 9.57-2.358 20.183 8.89 24.595 14.245-.44.784-.818 1.606-1.079 2.49-.902 3.078-.555 6.32.98 9.133l11.094 20.344c.902 1.648.461 3.059-.074 3.953-.527.891-1.555 1.957-3.438 1.957h-41.047c-15.438 0-28 12.562-28 28s12.563 28 28 28h92c5.208 0 9.606-3.354 11.263-8h16.737v11.289c0 11.422-9.289 20.711-20.711 20.711h-8.398c-1.386-2.381-3.937-4-6.891-4-4.418 0-8 3.582-8 8s3.582 8 8 8c2.954 0 5.505-1.619 6.891-4h8.398c15.832-.001 28.711-12.88 28.711-28.712v-11.289h20c4.41 0 8 3.59 8 8s-3.59 8-8 8h-1.109c-1.386-2.381-3.937-4-6.891-4-4.418 0-8 3.582-8 8s3.582 8 8 8c2.954 0 5.505-1.619 6.891-4h1.109c8.824 0 16-7.176 16-16s-7.176-16-16-16h-7.596c1.858-9.117 9.938-16 19.596-16h5.109c1.386 2.381 3.937 4 6.891 4 4.418 0 8-3.582 8-8s-3.582-8-8-8zm-162.975-72.238c-.507-2.969-1.693-6.761-4.338-10.34 3.376-2.854 9.181-8.765 10.826-16.782l16.168 2.695c.209 5.503 4.377 10.408 7.456 13.288-4.439 6.823-5.484 14.991-5.232 22.033-6.604-6.413-15.434-12.255-24.88-10.894zm82.975 108.238h-92c-11.027 0-20-8.973-20-20s8.973-20 20-20h41.047c4.281 0 8.137-2.199 10.316-5.875 2.188-3.676 2.27-8.113.219-11.867l-11.094-20.344c-.512-.938-.629-2.016-.328-3.043.301-1.023.984-1.871 1.922-2.383 1.949-1.062 4.371-.336 5.43 1.594l11.094 20.344c3.414 6.25 3.277 13.648-.359 19.781s-10.071 9.793-17.2 9.793h-41.047c-6.617 0-12 5.383-12 12s5.383 12 12 12h92c2.207 0 4 1.793 4 4s-1.793 4-4 4z"/></g></svg>